<svg width="21" height="21" viewBox="0 0 21 21" fill="none" xmlns="http://www.w3.org/2000/svg">
<path d="M18.6914 18.6902V12.6056C18.6914 9.61519 18.0476 7.33087 14.5588 7.33087C12.8767 7.33087 11.7554 8.2446 11.2985 9.11679H11.257V7.60084H7.95508V18.6902H11.4023V13.187C11.4023 11.7334 11.6723 10.342 13.4582 10.342C15.2234 10.342 15.2441 11.9826 15.2441 13.2701V18.6694H18.6914V18.6902Z" fill="white" fill-opacity="0.9"/>
<path d="M2.34668 7.60049H5.79392V18.6898H2.34668V7.60049Z" fill="white" fill-opacity="0.9"/>
<path d="M4.07074 2.07683C2.97011 2.07683 2.07715 2.96979 2.07715 4.07041C2.07715 5.17104 2.97011 6.08477 4.07074 6.08477C5.17136 6.08477 6.06432 5.17104 6.06432 4.07041C6.06432 2.96979 5.17136 2.07683 4.07074 2.07683Z" fill="white" fill-opacity="0.9"/>
</svg>
