<svg width="21" height="21" viewBox="0 0 21 21" fill="none" xmlns="http://www.w3.org/2000/svg">
<g clip-path="url(#clip0_77_71)">
<path d="M18.9413 3.08252H1.82518C0.816749 3.08252 0 3.90434 0 4.9077V15.8588C0 16.8681 0.822752 17.684 1.82518 17.684H18.9413C19.9413 17.684 20.7665 16.8716 20.7665 15.8588V4.9077C20.7665 3.90612 19.953 3.08252 18.9413 3.08252ZM18.6857 4.29931C18.3128 4.67023 11.8955 11.0538 11.6739 11.2742C11.3291 11.619 10.8708 11.8088 10.3833 11.8088C9.89574 11.8088 9.43741 11.6189 9.09152 11.2731C8.94251 11.1248 2.59594 4.81174 2.08079 4.29931H18.6857ZM1.21679 15.6111V5.15613L6.47486 10.3865L1.21679 15.6111ZM2.08156 16.4672L7.33756 11.2446L8.23227 12.1346C8.80683 12.7092 9.57073 13.0256 10.3833 13.0256C11.1958 13.0256 11.9597 12.7092 12.5331 12.1358L13.429 11.2446L18.685 16.4672H2.08156ZM19.5497 15.6111L14.2917 10.3865L19.5497 5.15613V15.6111Z" fill="white" fill-opacity="0.9"/>
</g>
<defs>
<clipPath id="clip0_77_71">
<rect width="20.7665" height="20.7665" fill="white"/>
</clipPath>
</defs>
</svg>
