<svg width="21" height="21" viewBox="0 0 21 21" fill="none" xmlns="http://www.w3.org/2000/svg">
<path d="M17.6791 3.0263C16.7257 2.06324 15.59 1.29965 14.3384 0.780074C13.0868 0.2605 11.7442 -0.00465908 10.3891 6.19492e-05C4.71095 6.19492e-05 0.0831958 4.62782 0.0831958 10.3059C0.0831958 12.1258 0.561571 13.8937 1.45592 15.4537L0 20.799L5.45971 19.3638C6.96764 20.1854 8.66275 20.6222 10.3891 20.6222C16.0672 20.6222 20.6949 15.9944 20.6949 10.3163C20.6949 7.56047 19.6238 4.971 17.6791 3.0263ZM10.3891 18.8751C8.84994 18.8751 7.34202 18.4591 6.02129 17.6791L5.7093 17.4919L2.46467 18.3447L3.32783 15.1833L3.11984 14.8609C2.26474 13.4954 1.81069 11.9171 1.80951 10.3059C1.80951 5.58457 5.6573 1.73677 10.3787 1.73677C12.6665 1.73677 14.8192 2.63112 16.4311 4.25344C17.2293 5.04792 17.8618 5.99292 18.292 7.03366C18.7222 8.0744 18.9416 9.19017 18.9374 10.3163C18.9582 15.0377 15.1104 18.8751 10.3891 18.8751ZM15.0896 12.469C14.8296 12.3442 13.5609 11.7202 13.3321 11.6267C13.0929 11.5435 12.9265 11.5019 12.7497 11.7514C12.5729 12.0114 12.0842 12.5938 11.9386 12.7602C11.793 12.937 11.637 12.9578 11.377 12.8226C11.117 12.6978 10.2851 12.417 9.30751 11.5435C8.53795 10.8571 8.02838 10.0147 7.87239 9.75475C7.7268 9.49477 7.85159 9.35957 7.98678 9.22438C8.10118 9.10998 8.24677 8.92279 8.37156 8.7772C8.49636 8.63161 8.54835 8.51722 8.63155 8.35082C8.71475 8.17403 8.67315 8.02844 8.61075 7.90365C8.54835 7.77886 8.02838 6.51012 7.82039 5.99015C7.6124 5.49097 7.39401 5.55337 7.23802 5.54297H6.73885C6.56206 5.54297 6.29167 5.60537 6.05248 5.86536C5.8237 6.12534 5.15813 6.74931 5.15813 8.01804C5.15813 9.28678 6.08368 10.5139 6.20848 10.6803C6.33327 10.8571 8.02838 13.457 10.6074 14.5697C11.221 14.8401 11.6994 14.9961 12.0738 15.1105C12.6873 15.3081 13.2489 15.2769 13.6961 15.2145C14.1953 15.1417 15.2248 14.5905 15.4328 13.9873C15.6512 13.3842 15.6512 12.8746 15.5784 12.7602C15.5056 12.6458 15.3496 12.5938 15.0896 12.469Z" fill="white" fill-opacity="0.9"/>
</svg>
