<svg width="23" height="23" viewBox="0 0 23 23" fill="none" xmlns="http://www.w3.org/2000/svg">
<path d="M22.6034 19.0338H0.39657C0.177576 19.0338 0 18.8562 0 18.6372V4.36141C0 4.14242 0.177576 3.96484 0.39657 3.96484H22.6034C22.8224 3.96484 23 4.14242 23 4.36141V18.6372C23 18.8563 22.8224 19.0338 22.6034 19.0338Z" fill="#F5F5F5"/>
<path d="M23 5.12405H0V4.36141C0 4.14242 0.177576 3.96484 0.39657 3.96484H22.6034C22.8224 3.96484 23 4.14242 23 4.36141L23 5.12405Z" fill="#FF4B55"/>
<path d="M23 8.60156H0V9.76072H23V8.60156Z" fill="#FF4B55"/>
<path d="M23 6.28125H0V7.44041H23V6.28125Z" fill="#FF4B55"/>
<path d="M23 12.0772H0.39657C0.177576 12.0772 0 11.8996 0 11.6806V10.918H23V12.0772Z" fill="#FF4B55"/>
<path d="M23 15.5586H0V16.7178H23V15.5586Z" fill="#FF4B55"/>
<path d="M22.6034 19.0342H0.39657C0.177576 19.0342 0 18.8566 0 18.6376V17.875H23V18.6376C23 18.8566 22.8224 19.0342 22.6034 19.0342Z" fill="#FF4B55"/>
<path d="M23 13.2383H0V14.3974H23V13.2383Z" fill="#FF4B55"/>
<path d="M10.3103 3.96484H0.39657C0.177576 3.96484 0 4.14237 0 4.36137V11.6823C0 11.9013 0.177576 12.0788 0.39657 12.0788H10.3104C10.5294 12.0788 10.7069 11.9013 10.7069 11.6823V4.36137C10.7069 4.14237 10.5293 3.96484 10.3103 3.96484Z" fill="#41479B"/>
<path d="M1.11394 4.87713L1.20171 5.14037L1.4792 5.14248C1.51513 5.1428 1.53 5.18862 1.50112 5.20995L1.2779 5.37482L1.36164 5.63936C1.37251 5.67359 1.33347 5.70198 1.30423 5.68105L1.07849 5.51973L0.852762 5.68109C0.823518 5.70198 0.784571 5.67364 0.795352 5.63941L0.879086 5.37486L0.65587 5.21C0.626985 5.18862 0.641854 5.14284 0.677791 5.14253L0.955273 5.14042L1.04305 4.87717C1.05437 4.84303 1.10253 4.84303 1.11394 4.87713Z" fill="#F5F5F5"/>
<path d="M1.11394 6.256L1.20171 6.51924L1.4792 6.52135C1.51513 6.52167 1.53 6.56749 1.50112 6.58883L1.2779 6.75369L1.36164 7.01823C1.37251 7.05246 1.33347 7.08086 1.30423 7.05992L1.07849 6.89861L0.852762 7.05997C0.823518 7.08086 0.784571 7.05251 0.795352 7.01828L0.879086 6.75373L0.65587 6.58887C0.626985 6.56749 0.641854 6.52171 0.677791 6.5214L0.955273 6.51929L1.04305 6.25605C1.05437 6.22195 1.10253 6.22195 1.11394 6.256Z" fill="#F5F5F5"/>
<path d="M1.11394 7.631L1.20171 7.89424L1.4792 7.89635C1.51513 7.89667 1.53 7.94249 1.50112 7.96383L1.2779 8.12869L1.36164 8.39323C1.37251 8.42746 1.33347 8.45586 1.30423 8.43492L1.07849 8.27361L0.852762 8.43497C0.823518 8.45586 0.784571 8.42751 0.795352 8.39328L0.879086 8.12873L0.65587 7.96387C0.626985 7.94249 0.641854 7.89671 0.677791 7.8964L0.955273 7.89429L1.04305 7.63105C1.05437 7.59695 1.10253 7.59695 1.11394 7.631Z" fill="#F5F5F5"/>
<path d="M1.11394 9.00994L1.20171 9.27318L1.4792 9.27529C1.51513 9.27561 1.53 9.32143 1.50112 9.34277L1.2779 9.50763L1.36164 9.77217C1.37251 9.8064 1.33347 9.8348 1.30423 9.81386L1.07849 9.65255L0.852762 9.81391C0.823518 9.83479 0.784571 9.80645 0.795352 9.77222L0.879086 9.50767L0.65587 9.34281C0.626985 9.32143 0.641854 9.27565 0.677791 9.27534L0.955273 9.27323L1.04305 9.00999C1.05437 8.97585 1.10253 8.97585 1.11394 9.00994Z" fill="#F5F5F5"/>
<path d="M1.11394 10.385L1.20171 10.6482L1.4792 10.6503C1.51513 10.6506 1.53 10.6965 1.50112 10.7178L1.2779 10.8827L1.36164 11.1472C1.37251 11.1814 1.33347 11.2098 1.30423 11.1889L1.07849 11.0276L0.852762 11.1889C0.823518 11.2098 0.784571 11.1815 0.795352 11.1473L0.879086 10.8827L0.65587 10.7178C0.626985 10.6965 0.641854 10.6507 0.677791 10.6504L0.955273 10.6483L1.04305 10.385C1.05437 10.3508 1.10253 10.3508 1.11394 10.385Z" fill="#F5F5F5"/>
<path d="M2.18425 5.55288L2.27203 5.81612L2.54951 5.81823C2.58545 5.81855 2.60032 5.86437 2.57143 5.88571L2.34821 6.05057L2.43195 6.31511C2.44282 6.34935 2.40378 6.37774 2.37454 6.3568L2.14881 6.19544L1.92307 6.3568C1.89383 6.37769 1.85488 6.34935 1.86566 6.31511L1.9494 6.05057L1.72618 5.88571C1.6973 5.86432 1.71217 5.81855 1.7481 5.81823L2.02559 5.81612L2.11336 5.55288C2.12464 5.51883 2.17288 5.51883 2.18425 5.55288Z" fill="#F5F5F5"/>
<path d="M2.18425 6.92792L2.27203 7.19116L2.54951 7.19327C2.58545 7.19358 2.60032 7.2394 2.57143 7.26074L2.34821 7.4256L2.43195 7.69015C2.44282 7.72438 2.40378 7.75277 2.37454 7.73184L2.14881 7.57048L1.92307 7.73184C1.89383 7.75272 1.85488 7.72442 1.86566 7.69015L1.9494 7.4256L1.72618 7.26074C1.6973 7.23936 1.71217 7.19358 1.7481 7.19327L2.02559 7.19116L2.11336 6.92792C2.12464 6.89382 2.17288 6.89382 2.18425 6.92792Z" fill="#F5F5F5"/>
<path d="M2.18425 8.30682L2.27203 8.57006L2.54951 8.57217C2.58545 8.57249 2.60032 8.61831 2.57143 8.63965L2.34821 8.80451L2.43195 9.06905C2.44282 9.10328 2.40378 9.13168 2.37454 9.11074L2.14881 8.94938L1.92307 9.11074C1.89383 9.13163 1.85488 9.10328 1.86566 9.06905L1.9494 8.80451L1.72618 8.63965C1.6973 8.61826 1.71217 8.57249 1.7481 8.57217L2.02559 8.57006L2.11336 8.30682C2.12464 8.27273 2.17288 8.27273 2.18425 8.30682Z" fill="#F5F5F5"/>
<path d="M2.18425 9.68179L2.27203 9.94503L2.54951 9.94714C2.58545 9.94746 2.60032 9.99328 2.57143 10.0146L2.34821 10.1795L2.43195 10.444C2.44282 10.4783 2.40378 10.5066 2.37454 10.4857L2.14881 10.3243L1.92307 10.4857C1.89383 10.5066 1.85488 10.4783 1.86566 10.444L1.9494 10.1795L1.72618 10.0146C1.6973 9.99323 1.71217 9.94746 1.7481 9.94714L2.02559 9.94503L2.11336 9.68179C2.12464 9.64774 2.17288 9.64774 2.18425 9.68179Z" fill="#F5F5F5"/>
<path d="M3.25066 4.87713L3.33843 5.14038L3.61591 5.14249C3.65185 5.1428 3.66672 5.18862 3.63784 5.20996L3.41462 5.37482L3.49835 5.63937C3.50923 5.6736 3.47019 5.70199 3.44094 5.68105L3.21521 5.5197L2.98948 5.68105C2.96024 5.70194 2.92129 5.6736 2.93207 5.63937L3.0158 5.37482L2.79259 5.20996C2.7637 5.18858 2.77857 5.1428 2.81451 5.14249L3.09199 5.14038L3.17977 4.87713C3.19109 4.84304 3.23929 4.84304 3.25066 4.87713Z" fill="#F5F5F5"/>
<path d="M3.25066 6.25601L3.33843 6.51925L3.61591 6.52136C3.65185 6.52167 3.66672 6.56749 3.63784 6.58883L3.41462 6.7537L3.49835 7.01824C3.50923 7.05247 3.47019 7.08086 3.44094 7.05993L3.21521 6.89857L2.98948 7.05993C2.96024 7.08082 2.92129 7.05247 2.93207 7.01824L3.0158 6.7537L2.79259 6.58883C2.7637 6.56745 2.77857 6.52167 2.81451 6.52136L3.09199 6.51925L3.17977 6.25601C3.19109 6.22196 3.23929 6.22196 3.25066 6.25601Z" fill="#F5F5F5"/>
<path d="M3.25066 7.63101L3.33843 7.89425L3.61591 7.89636C3.65185 7.89667 3.66672 7.9425 3.63784 7.96383L3.41462 8.1287L3.49835 8.39324C3.50923 8.42747 3.47019 8.45586 3.44094 8.43493L3.21521 8.27357L2.98948 8.43493C2.96024 8.45582 2.92129 8.42747 2.93207 8.39324L3.0158 8.1287L2.79259 7.96383C2.7637 7.94245 2.77857 7.89667 2.81451 7.89636L3.09199 7.89425L3.17977 7.63101C3.19109 7.59696 3.23929 7.59696 3.25066 7.63101Z" fill="#F5F5F5"/>
<path d="M3.25066 9.00995L3.33843 9.27319L3.61591 9.2753C3.65185 9.27561 3.66672 9.32143 3.63784 9.34277L3.41462 9.50763L3.49835 9.77218C3.50923 9.80641 3.47019 9.8348 3.44094 9.81387L3.21521 9.65251L2.98948 9.81387C2.96024 9.83476 2.92129 9.80641 2.93207 9.77218L3.0158 9.50763L2.79259 9.34277C2.7637 9.32139 2.77857 9.27561 2.81451 9.2753L3.09199 9.27319L3.17977 9.00995C3.19109 8.97585 3.23929 8.97585 3.25066 9.00995Z" fill="#F5F5F5"/>
<path d="M3.25066 10.385L3.33843 10.6482L3.61591 10.6503C3.65185 10.6506 3.66672 10.6965 3.63784 10.7178L3.41462 10.8827L3.49835 11.1472C3.50923 11.1814 3.47019 11.2098 3.44094 11.1889L3.21521 11.0275L2.98948 11.1889C2.96024 11.2098 2.92129 11.1814 2.93207 11.1472L3.0158 10.8827L2.79259 10.7178C2.7637 10.6964 2.77857 10.6506 2.81451 10.6503L3.09199 10.6482L3.17977 10.385C3.19109 10.3508 3.23929 10.3508 3.25066 10.385Z" fill="#F5F5F5"/>
<path d="M4.32097 5.55288L4.40875 5.81612L4.68623 5.81823C4.72216 5.81855 4.73703 5.86437 4.70815 5.88571L4.48493 6.05057L4.56867 6.31511C4.57954 6.34935 4.5405 6.37774 4.51126 6.3568L4.28552 6.19544L4.05979 6.3568C4.03055 6.37769 3.9916 6.34935 4.00238 6.31511L4.08612 6.05057L3.8629 5.88571C3.83402 5.86432 3.84889 5.81855 3.88482 5.81823L4.1623 5.81612L4.25008 5.55288C4.26136 5.51883 4.3096 5.51883 4.32097 5.55288Z" fill="#F5F5F5"/>
<path d="M4.32097 6.92792L4.40875 7.19116L4.68623 7.19327C4.72216 7.19358 4.73703 7.2394 4.70815 7.26074L4.48493 7.4256L4.56867 7.69015C4.57954 7.72438 4.5405 7.75277 4.51126 7.73184L4.28552 7.57048L4.05979 7.73184C4.03055 7.75272 3.9916 7.72442 4.00238 7.69015L4.08612 7.4256L3.8629 7.26074C3.83402 7.23936 3.84889 7.19358 3.88482 7.19327L4.1623 7.19116L4.25008 6.92792C4.26136 6.89382 4.3096 6.89382 4.32097 6.92792Z" fill="#F5F5F5"/>
<path d="M4.32097 8.30682L4.40875 8.57006L4.68623 8.57217C4.72216 8.57249 4.73703 8.61831 4.70815 8.63965L4.48493 8.80451L4.56867 9.06905C4.57954 9.10328 4.5405 9.13168 4.51126 9.11074L4.28552 8.94938L4.05979 9.11074C4.03055 9.13163 3.9916 9.10328 4.00238 9.06905L4.08612 8.80451L3.8629 8.63965C3.83402 8.61826 3.84889 8.57249 3.88482 8.57217L4.1623 8.57006L4.25008 8.30682C4.26136 8.27273 4.3096 8.27273 4.32097 8.30682Z" fill="#F5F5F5"/>
<path d="M4.32097 9.68179L4.40875 9.94503L4.68623 9.94714C4.72216 9.94746 4.73703 9.99328 4.70815 10.0146L4.48493 10.1795L4.56867 10.444C4.57954 10.4783 4.5405 10.5066 4.51126 10.4857L4.28552 10.3243L4.05979 10.4857C4.03055 10.5066 3.9916 10.4783 4.00238 10.444L4.08612 10.1795L3.8629 10.0146C3.83402 9.99323 3.84889 9.94746 3.88482 9.94714L4.1623 9.94503L4.25008 9.68179C4.26136 9.64774 4.3096 9.64774 4.32097 9.68179Z" fill="#F5F5F5"/>
<path d="M5.38742 4.87713L5.4752 5.14038L5.75268 5.14249C5.78862 5.1428 5.80348 5.18862 5.7746 5.20996L5.55138 5.37482L5.63512 5.63937C5.64599 5.6736 5.60695 5.70199 5.57771 5.68105L5.35193 5.5197L5.1262 5.68105C5.09696 5.70194 5.05801 5.6736 5.06879 5.63937L5.15252 5.37482L4.92931 5.20996C4.90042 5.18858 4.91529 5.1428 4.95123 5.14249L5.22871 5.14038L5.31649 4.87713C5.32785 4.84304 5.37605 4.84304 5.38742 4.87713Z" fill="#F5F5F5"/>
<path d="M5.38742 6.25601L5.4752 6.51925L5.75268 6.52136C5.78862 6.52167 5.80348 6.56749 5.7746 6.58883L5.55138 6.7537L5.63512 7.01824C5.64599 7.05247 5.60695 7.08086 5.57771 7.05993L5.35193 6.89857L5.1262 7.05993C5.09696 7.08082 5.05801 7.05247 5.06879 7.01824L5.15252 6.7537L4.92931 6.58883C4.90042 6.56745 4.91529 6.52167 4.95123 6.52136L5.22871 6.51925L5.31649 6.25601C5.32785 6.22196 5.37605 6.22196 5.38742 6.25601Z" fill="#F5F5F5"/>
<path d="M5.38742 7.63101L5.4752 7.89425L5.75268 7.89636C5.78862 7.89667 5.80348 7.9425 5.7746 7.96383L5.55138 8.1287L5.63512 8.39324C5.64599 8.42747 5.60695 8.45586 5.57771 8.43493L5.35193 8.27357L5.1262 8.43493C5.09696 8.45582 5.05801 8.42747 5.06879 8.39324L5.15252 8.1287L4.92931 7.96383C4.90042 7.94245 4.91529 7.89667 4.95123 7.89636L5.22871 7.89425L5.31649 7.63101C5.32785 7.59696 5.37605 7.59696 5.38742 7.63101Z" fill="#F5F5F5"/>
<path d="M5.38742 9.00995L5.4752 9.27319L5.75268 9.2753C5.78862 9.27561 5.80348 9.32143 5.7746 9.34277L5.55138 9.50763L5.63512 9.77218C5.64599 9.80641 5.60695 9.8348 5.57771 9.81387L5.35193 9.65251L5.1262 9.81387C5.09696 9.83476 5.05801 9.80641 5.06879 9.77218L5.15252 9.50763L4.92931 9.34277C4.90042 9.32139 4.91529 9.27561 4.95123 9.2753L5.22871 9.27319L5.31649 9.00995C5.32785 8.97585 5.37605 8.97585 5.38742 9.00995Z" fill="#F5F5F5"/>
<path d="M5.38742 10.385L5.4752 10.6482L5.75268 10.6503C5.78862 10.6506 5.80348 10.6965 5.7746 10.7178L5.55138 10.8827L5.63512 11.1472C5.64599 11.1814 5.60695 11.2098 5.57771 11.1889L5.35193 11.0275L5.1262 11.1889C5.09696 11.2098 5.05801 11.1814 5.06879 11.1472L5.15252 10.8827L4.92931 10.7178C4.90042 10.6964 4.91529 10.6506 4.95123 10.6503L5.22871 10.6482L5.31649 10.385C5.32785 10.3508 5.37605 10.3508 5.38742 10.385Z" fill="#F5F5F5"/>
<path d="M6.45769 5.55288L6.54546 5.81612L6.82295 5.81823C6.85888 5.81855 6.87375 5.86437 6.84487 5.88571L6.62165 6.05057L6.70539 6.31511C6.71626 6.34935 6.67722 6.37774 6.64798 6.3568L6.42224 6.19544L6.19651 6.3568C6.16727 6.37769 6.12832 6.34935 6.1391 6.31511L6.22284 6.05057L5.99962 5.88571C5.97073 5.86432 5.9856 5.81855 6.02154 5.81823L6.29902 5.81612L6.3868 5.55288C6.39817 5.51883 6.44632 5.51883 6.45769 5.55288Z" fill="#F5F5F5"/>
<path d="M6.45769 6.92792L6.54546 7.19116L6.82295 7.19327C6.85888 7.19358 6.87375 7.2394 6.84487 7.26074L6.62165 7.4256L6.70539 7.69015C6.71626 7.72438 6.67722 7.75277 6.64798 7.73184L6.42224 7.57048L6.19651 7.73184C6.16727 7.75272 6.12832 7.72442 6.1391 7.69015L6.22284 7.4256L5.99962 7.26074C5.97073 7.23936 5.9856 7.19358 6.02154 7.19327L6.29902 7.19116L6.3868 6.92792C6.39817 6.89382 6.44632 6.89382 6.45769 6.92792Z" fill="#F5F5F5"/>
<path d="M6.45769 8.30682L6.54546 8.57006L6.82295 8.57217C6.85888 8.57249 6.87375 8.61831 6.84487 8.63965L6.62165 8.80451L6.70539 9.06905C6.71626 9.10328 6.67722 9.13168 6.64798 9.11074L6.42224 8.94938L6.19651 9.11074C6.16727 9.13163 6.12832 9.10328 6.1391 9.06905L6.22284 8.80451L5.99962 8.63965C5.97073 8.61826 5.9856 8.57249 6.02154 8.57217L6.29902 8.57006L6.3868 8.30682C6.39817 8.27273 6.44632 8.27273 6.45769 8.30682Z" fill="#F5F5F5"/>
<path d="M6.45769 9.68179L6.54546 9.94503L6.82295 9.94714C6.85888 9.94746 6.87375 9.99328 6.84487 10.0146L6.62165 10.1795L6.70539 10.444C6.71626 10.4783 6.67722 10.5066 6.64798 10.4857L6.42224 10.3243L6.19651 10.4857C6.16727 10.5066 6.12832 10.4783 6.1391 10.444L6.22284 10.1795L5.99962 10.0146C5.97073 9.99323 5.9856 9.94746 6.02154 9.94714L6.29902 9.94503L6.3868 9.68179C6.39817 9.64774 6.44632 9.64774 6.45769 9.68179Z" fill="#F5F5F5"/>
<path d="M7.528 4.87713L7.61578 5.14038L7.89326 5.14249C7.9292 5.1428 7.94407 5.18862 7.91518 5.20996L7.69196 5.37482L7.7757 5.63937C7.78657 5.6736 7.74753 5.70199 7.71829 5.68105L7.49256 5.5197L7.26682 5.68105C7.23758 5.70194 7.19863 5.6736 7.20941 5.63937L7.29315 5.37482L7.06993 5.20996C7.04105 5.18858 7.05592 5.1428 7.09185 5.14249L7.36934 5.14038L7.45711 4.87713C7.46839 4.84304 7.51663 4.84304 7.528 4.87713Z" fill="#F5F5F5"/>
<path d="M7.528 6.25601L7.61578 6.51925L7.89326 6.52136C7.9292 6.52167 7.94407 6.56749 7.91518 6.58883L7.69196 6.7537L7.7757 7.01824C7.78657 7.05247 7.74753 7.08086 7.71829 7.05993L7.49256 6.89857L7.26682 7.05993C7.23758 7.08082 7.19863 7.05247 7.20941 7.01824L7.29315 6.7537L7.06993 6.58883C7.04105 6.56745 7.05592 6.52167 7.09185 6.52136L7.36934 6.51925L7.45711 6.25601C7.46839 6.22196 7.51663 6.22196 7.528 6.25601Z" fill="#F5F5F5"/>
<path d="M7.528 7.63101L7.61578 7.89425L7.89326 7.89636C7.9292 7.89667 7.94407 7.9425 7.91518 7.96383L7.69196 8.1287L7.7757 8.39324C7.78657 8.42747 7.74753 8.45586 7.71829 8.43493L7.49256 8.27357L7.26682 8.43493C7.23758 8.45582 7.19863 8.42747 7.20941 8.39324L7.29315 8.1287L7.06993 7.96383C7.04105 7.94245 7.05592 7.89667 7.09185 7.89636L7.36934 7.89425L7.45711 7.63101C7.46839 7.59696 7.51663 7.59696 7.528 7.63101Z" fill="#F5F5F5"/>
<path d="M7.528 9.00995L7.61578 9.27319L7.89326 9.2753C7.9292 9.27561 7.94407 9.32143 7.91518 9.34277L7.69196 9.50763L7.7757 9.77218C7.78657 9.80641 7.74753 9.8348 7.71829 9.81387L7.49256 9.65251L7.26682 9.81387C7.23758 9.83476 7.19863 9.80641 7.20941 9.77218L7.29315 9.50763L7.06993 9.34277C7.04105 9.32139 7.05592 9.27561 7.09185 9.2753L7.36934 9.27319L7.45711 9.00995C7.46839 8.97585 7.51663 8.97585 7.528 9.00995Z" fill="#F5F5F5"/>
<path d="M7.528 10.385L7.61578 10.6482L7.89326 10.6503C7.9292 10.6506 7.94407 10.6965 7.91518 10.7178L7.69196 10.8827L7.7757 11.1472C7.78657 11.1814 7.74753 11.2098 7.71829 11.1889L7.49256 11.0275L7.26682 11.1889C7.23758 11.2098 7.19863 11.1814 7.20941 11.1472L7.29315 10.8827L7.06993 10.7178C7.04105 10.6964 7.05592 10.6506 7.09185 10.6503L7.36934 10.6482L7.45711 10.385C7.46839 10.3508 7.51663 10.3508 7.528 10.385Z" fill="#F5F5F5"/>
<path d="M8.59441 5.55288L8.68218 5.81612L8.95967 5.81823C8.9956 5.81855 9.01047 5.86437 8.98159 5.88571L8.75837 6.05057L8.8421 6.31511C8.85298 6.34935 8.81394 6.37774 8.78469 6.3568L8.55896 6.19544L8.33323 6.3568C8.30399 6.37769 8.26504 6.34935 8.27582 6.31511L8.35955 6.05057L8.13634 5.88571C8.10745 5.86432 8.12232 5.81855 8.15826 5.81823L8.43574 5.81612L8.52352 5.55288C8.53484 5.51883 8.58309 5.51883 8.59441 5.55288Z" fill="#F5F5F5"/>
<path d="M8.59441 6.92792L8.68218 7.19116L8.95967 7.19327C8.9956 7.19358 9.01047 7.2394 8.98159 7.26074L8.75837 7.4256L8.8421 7.69015C8.85298 7.72438 8.81394 7.75277 8.78469 7.73184L8.55896 7.57048L8.33323 7.73184C8.30399 7.75272 8.26504 7.72442 8.27582 7.69015L8.35955 7.4256L8.13634 7.26074C8.10745 7.23936 8.12232 7.19358 8.15826 7.19327L8.43574 7.19116L8.52352 6.92792C8.53484 6.89382 8.58309 6.89382 8.59441 6.92792Z" fill="#F5F5F5"/>
<path d="M8.59441 8.30682L8.68218 8.57006L8.95967 8.57217C8.9956 8.57249 9.01047 8.61831 8.98159 8.63965L8.75837 8.80451L8.8421 9.06905C8.85298 9.10328 8.81394 9.13168 8.78469 9.11074L8.55896 8.94938L8.33323 9.11074C8.30399 9.13163 8.26504 9.10328 8.27582 9.06905L8.35955 8.80451L8.13634 8.63965C8.10745 8.61826 8.12232 8.57249 8.15826 8.57217L8.43574 8.57006L8.52352 8.30682C8.53484 8.27273 8.58309 8.27273 8.59441 8.30682Z" fill="#F5F5F5"/>
<path d="M8.59441 9.68179L8.68218 9.94503L8.95967 9.94714C8.9956 9.94746 9.01047 9.99328 8.98159 10.0146L8.75837 10.1795L8.8421 10.444C8.85298 10.4783 8.81394 10.5066 8.78469 10.4857L8.55896 10.3243L8.33323 10.4857C8.30399 10.5066 8.26504 10.4783 8.27582 10.444L8.35955 10.1795L8.13634 10.0146C8.10745 9.99323 8.12232 9.94746 8.15826 9.94714L8.43574 9.94503L8.52352 9.68179C8.53484 9.64774 8.58309 9.64774 8.59441 9.68179Z" fill="#F5F5F5"/>
<path d="M9.66472 4.87713L9.7525 5.14038L10.03 5.14249C10.0659 5.1428 10.0808 5.18862 10.0519 5.20996L9.82868 5.37482L9.91242 5.63937C9.92329 5.6736 9.88425 5.70199 9.85501 5.68105L9.62928 5.5197L9.40354 5.68105C9.3743 5.70194 9.33535 5.6736 9.34613 5.63937L9.42987 5.37482L9.20665 5.20996C9.17777 5.18858 9.19264 5.1428 9.22857 5.14249L9.50605 5.14038L9.59383 4.87713C9.60515 4.84304 9.65331 4.84304 9.66472 4.87713Z" fill="#F5F5F5"/>
<path d="M9.66472 6.25601L9.7525 6.51925L10.03 6.52136C10.0659 6.52167 10.0808 6.56749 10.0519 6.58883L9.82868 6.7537L9.91242 7.01824C9.92329 7.05247 9.88425 7.08086 9.85501 7.05993L9.62928 6.89857L9.40354 7.05993C9.3743 7.08082 9.33535 7.05247 9.34613 7.01824L9.42987 6.7537L9.20665 6.58883C9.17777 6.56745 9.19264 6.52167 9.22857 6.52136L9.50605 6.51925L9.59383 6.25601C9.60515 6.22196 9.65331 6.22196 9.66472 6.25601Z" fill="#F5F5F5"/>
<path d="M9.66472 7.63101L9.7525 7.89425L10.03 7.89636C10.0659 7.89667 10.0808 7.9425 10.0519 7.96383L9.82868 8.1287L9.91242 8.39324C9.92329 8.42747 9.88425 8.45586 9.85501 8.43493L9.62928 8.27357L9.40354 8.43493C9.3743 8.45582 9.33535 8.42747 9.34613 8.39324L9.42987 8.1287L9.20665 7.96383C9.17777 7.94245 9.19264 7.89667 9.22857 7.89636L9.50605 7.89425L9.59383 7.63101C9.60515 7.59696 9.65331 7.59696 9.66472 7.63101Z" fill="#F5F5F5"/>
<path d="M9.66472 9.00995L9.7525 9.27319L10.03 9.2753C10.0659 9.27561 10.0808 9.32143 10.0519 9.34277L9.82868 9.50763L9.91242 9.77218C9.92329 9.80641 9.88425 9.8348 9.85501 9.81387L9.62928 9.65251L9.40354 9.81387C9.3743 9.83476 9.33535 9.80641 9.34613 9.77218L9.42987 9.50763L9.20665 9.34277C9.17777 9.32139 9.19264 9.27561 9.22857 9.2753L9.50605 9.27319L9.59383 9.00995C9.60515 8.97585 9.65331 8.97585 9.66472 9.00995Z" fill="#F5F5F5"/>
<path d="M9.66472 10.385L9.7525 10.6482L10.03 10.6503C10.0659 10.6506 10.0808 10.6965 10.0519 10.7178L9.82868 10.8827L9.91242 11.1472C9.92329 11.1814 9.88425 11.2098 9.85501 11.1889L9.62928 11.0275L9.40354 11.1889C9.3743 11.2098 9.33535 11.1814 9.34613 11.1472L9.42987 10.8827L9.20665 10.7178C9.17777 10.6964 9.19264 10.6506 9.22857 10.6503L9.50605 10.6482L9.59383 10.385C9.60515 10.3508 9.65331 10.3508 9.66472 10.385Z" fill="#F5F5F5"/>
</svg>
