<svg width="21" height="21" viewBox="0 0 21 21" fill="none" xmlns="http://www.w3.org/2000/svg">
<g clip-path="url(#clip0_2970_8989)">
<path d="M20.3977 2.87309C20.0888 2.56362 19.5875 2.56309 19.2786 2.87177L9.78379 12.3415L6.35808 8.62089C6.06207 8.29958 5.5616 8.27874 5.23975 8.57471C4.91814 8.87072 4.89755 9.37144 5.19356 9.69304L9.17725 14.0194C9.32314 14.178 9.52732 14.2701 9.74261 14.2745C9.74839 14.2748 9.75397 14.2748 9.75951 14.2748C9.96873 14.2748 10.17 14.1917 10.3183 14.0439L20.3962 3.99244C20.7059 3.6838 20.7064 3.18255 20.3977 2.87309Z" fill="#18AA5C"/>
<path d="M20.2085 9.70852C19.7714 9.70852 19.4171 10.0628 19.4171 10.5C19.4171 15.4171 15.4171 19.4171 10.5 19.4171C5.58321 19.4171 1.58292 15.4171 1.58292 10.5C1.58292 5.58321 5.58321 1.58292 10.5 1.58292C10.9371 1.58292 11.2915 1.22862 11.2915 0.791479C11.2915 0.354293 10.9371 0 10.5 0C4.71023 0 0 4.71023 0 10.5C0 16.2895 4.71023 21 10.5 21C16.2895 21 21 16.2895 21 10.5C21 10.0629 20.6457 9.70852 20.2085 9.70852Z" fill="#18AA5C"/>
</g>
<defs>
<clipPath id="clip0_2970_8989">
<rect width="21" height="21" fill="white"/>
</clipPath>
</defs>
</svg>
