<svg width="43" height="43" viewBox="0 0 43 43" fill="none" xmlns="http://www.w3.org/2000/svg">
<path d="M12.8037 29.0361C13.3285 29.5609 14.1793 29.5609 14.7041 29.0361L29.9333 13.8069C30.4581 13.2821 30.4581 12.4314 29.9333 11.9067C29.4085 11.3819 28.5576 11.3819 28.0329 11.9067L12.8037 27.1358C12.279 27.6605 12.279 28.5113 12.8037 29.0361Z" fill="#18AA5C"/>
<path d="M28.9844 30.3281C29.7266 30.3281 30.3282 29.7265 30.3282 28.9844V12.8593C30.3282 12.1172 29.7266 11.5156 28.9844 11.5156H12.8594C12.1172 11.5156 11.5156 12.1172 11.5156 12.8593C11.5156 13.6016 12.1172 14.2031 12.8594 14.2031H27.6407V28.9844C27.6407 29.7265 28.2422 30.3281 28.9844 30.3281Z" fill="#18AA5C"/>
</svg>
