<svg width="40" height="40" viewBox="0 0 40 40" fill="none" xmlns="http://www.w3.org/2000/svg">
<path d="M37.6448 23.8437C36.8586 22.6207 36.0724 21.4414 35.2862 20.2184C35.1114 19.9563 35.1114 19.7816 35.2862 19.5195C36.0724 18.3402 36.8149 17.1609 37.6011 15.9816C38.5183 14.5839 38.0379 13.2299 36.4655 12.6621C35.1551 12.1816 33.8448 11.6575 32.5344 11.177C32.2724 11.0897 32.1413 10.9149 32.1413 10.6092C32.0976 9.16782 32.0103 7.72644 31.9229 6.32874C31.8356 4.8 30.6563 3.92644 29.1712 4.31954C27.7735 4.66897 26.3758 5.06207 25.0218 5.45518C24.716 5.54253 24.5413 5.45518 24.3229 5.23679C23.4494 4.10115 22.5321 3.0092 21.6586 1.91724C20.6976 0.694253 19.2126 0.694253 18.208 1.91724C17.3344 3.0092 16.4172 4.10115 15.5873 5.1931C15.3689 5.49885 15.1505 5.54253 14.8011 5.45517C13.4471 5.06207 12.0931 4.71265 11.1321 4.45058C9.25397 4.01379 8.11834 4.75632 8.03098 6.32874C7.94363 7.77012 7.85627 9.2115 7.81259 10.6966C7.81259 11.0023 7.68156 11.1333 7.41949 11.2644C6.06546 11.7885 4.71145 12.3126 3.35742 12.8368C1.95972 13.4046 1.52294 14.7586 2.35282 16.0253C3.13903 17.2483 3.92524 18.4276 4.71144 19.6506C4.88615 19.9126 4.88615 20.0874 4.71144 20.3931C3.88156 21.6161 3.09535 22.8391 2.30914 24.1058C1.56661 25.2851 2.04707 26.6828 3.35741 27.2069C4.71144 27.731 6.10914 28.2552 7.46316 28.7793C7.7689 28.8667 7.85626 29.0414 7.85626 29.3471C7.89994 30.7448 8.07465 32.0989 8.07465 33.4966C8.07465 34.8943 9.29764 36.1609 11.0011 35.6368C12.3551 35.2 13.7091 34.8943 15.0632 34.5011C15.3252 34.4138 15.4999 34.4575 15.6746 34.7195C16.5919 35.8552 17.4655 36.9471 18.3827 38.0828C19.3873 39.3057 20.8287 39.3057 21.7896 38.0828C22.7068 36.9471 23.5804 35.8552 24.4976 34.7195C24.6723 34.5011 24.8034 34.4138 25.1091 34.5011C26.5068 34.8943 27.9045 35.2437 29.3022 35.6368C30.7436 36.0299 31.9666 35.1563 32.0103 33.6713C32.0976 32.2299 32.185 30.7885 32.2287 29.3035C32.2287 28.954 32.4034 28.823 32.6654 28.7356C33.9758 28.2552 35.3298 27.731 36.6402 27.2069C38.0379 26.5081 38.4747 25.1103 37.6448 23.8437ZM27.2057 16.6805L18.4701 25.4161C18.2517 25.6345 17.9459 25.8092 17.6402 25.8529C17.5528 25.8529 17.4218 25.8966 17.3344 25.8966C16.9413 25.8966 16.5046 25.7219 16.1988 25.4161L12.6172 21.8345C12.0057 21.223 12.0057 20.2184 12.6172 19.6069C13.2287 18.9954 14.2333 18.9954 14.8448 19.6069L17.2908 22.0529L24.8908 14.4529C25.5023 13.8414 26.5068 13.8414 27.1183 14.4529C27.8172 15.0644 27.8172 16.069 27.2057 16.6805Z" fill="#3B6AEB"/>
</svg>
